<?xml version="1.0" encoding="UTF-8"?>
<svg id="Layer_1" data-name="Layer 1" xmlns="http://www.w3.org/2000/svg" viewBox="0 0 280.07 91.89">
  <defs>
    <style>
      .cls-1 {
        fill: #f1698d;
      }

      .cls-2 {
        fill: #d5eef0;
      }

      .cls-3 {
        fill: #a3ca77;
      }

      .cls-4 {
        fill: #050606;
      }
    </style>
  </defs>
  <path id="Rectangle_1" data-name="Rectangle 1" class="cls-2" d="m30.22,9.22h219.63c16.69,0,30.22,13.53,30.22,30.22s-13.53,30.22-30.22,30.22H30.22C13.53,69.67,0,56.14,0,39.45S13.53,9.22,30.22,9.22Z"/>
  <path id="Rectangle_2" data-name="Rectangle 2" class="cls-1" d="m27.99,11.71h87.59v80.19H27.99V11.71Z"/>
  <path id="Rectangle_3" data-name="Rectangle 3" class="cls-3" d="m156.19,11.71h86.04v80.19h-86.04V11.71Z"/>
  <path id="Offrang" class="cls-4" d="m44.28,0h.32c.21.03.32.13.32.32l-.32.16h-.32v-.48Zm-10.77,15.43h.16c.21.03.32.13.32.32v.32h-.64c-.21,0-.32-.11-.32-.32l.48-.32Zm15.43,6.11c.29.05.62.32.96.8l.32-.16h.16l.64.8.16-.32-.16-.8.48-.32h.64c1.07.54,1.93.8,2.57.8.75,0,1.5.48,2.25,1.45,1.47,0,2.55.96,3.22,2.89,1.07.8,1.61,1.55,1.61,2.25-.11.19-.16.4-.16.64.75,1.15,1.18,2.12,1.29,2.89,0,.75-.21,1.13-.64,1.13v.16c0,.43.43,1.5,1.29,3.22v.96c0,.05-.11.21-.32.48v.16c.21.27.32.48.32.64,0,.7-.05,1.77-.16,3.22l.32,1.61c-.8,1.71-1.34,3.27-1.61,4.66-.83,0-1.63,1.18-2.41,3.54-.4.21-1.74,1.23-4.02,3.05l-1.61-.16c0,.43-.96.75-2.89.96-.11.32-.43.48-.96.48-.62,0-1.42-.59-2.41-1.77,0,.16-.21.37-.64.64-1.63-1.1-2.54-1.79-2.73-2.09,0-.38-.8-.96-2.41-1.77-.46-.78-.94-2.06-1.45-3.86l-1.77-3.05c-.43-.16-.64-.32-.64-.48v-.48l.48-.64c-.54-1.18-.8-1.88-.8-2.09v-.64l.47-1.61v-.64c0-.35-.16-.72-.48-1.13v-.48c.64-1.5,1.02-3.05,1.13-4.66,1.39-2.12,2.09-3.62,2.09-4.5.29-.67,1.15-1.58,2.57-2.73.83-1.29,1.96-1.93,3.38-1.93.99-.75,1.64-1.12,1.93-1.12Zm-3.05,2.41v3.38c.03.21.13.32.32.32l.32-.96c-.11-.72-.16-1.31-.16-1.77v-.96h-.48Zm4.98,1.44c0,.21-.43.38-1.29.48-.43,1.07-1.28,1.61-2.57,1.61v.16c0,.05.11.21.32.48v.48c0,.16-.16.32-.48.48l-.8-.16c-.43.54-1.07,2.04-1.93,4.5.11.75.16,1.18.16,1.29-.21.64-.64,1.34-1.29,2.09v.16c.21.75.32,1.18.32,1.29v.32c0,.24-.21.94-.64,2.09,0,.16.38.8,1.13,1.93l-.16,1.13c.11.75.27,1.13.48,1.13h.16l.64-.48h.32c.21.03.32.13.32.32v.32c-.24.21-.51.96-.8,2.25,0,.35.54.78,1.61,1.29v1.28c.19,0,.88.48,2.09,1.45.62,0,1.37.48,2.25,1.45h.48c.54-.4,1.45-.72,2.73-.96.43-.96,1.34-1.45,2.73-1.45,0-.19.48-1.1,1.45-2.73v-.16l-.64-.64,1.13-.64c.86-1.93,1.29-2.95,1.29-3.05s-.11-.64-.32-1.61l.16-.8-.16-.96c.32,0,.48-.21.48-.64-.32-.54-.48-.91-.48-1.13.43-.78.64-1.21.64-1.29,0-.7-.38-1.82-1.13-3.38,0-2.25-.64-3.38-1.93-3.38-.32,0-.54-.64-.64-1.93-.35-.75-.62-1.13-.8-1.13-.67.51-1.1.78-1.29.8-.64,0-.96-.54-.96-1.61l-.32-.16h-.32c-.62.43-1.04.64-1.29.64-.29-.74-.51-1.12-.64-1.12Zm6.27,7.23h.16c.21.03.32.13.32.32v.16c0,.21-.11.32-.32.32h-.16c-.21,0-.32-.11-.32-.32v-.16c.03-.21.13-.32.32-.32Zm-15.27,4.66v.32h.16v-.32h-.16Zm19.61,5.14v.48h.64c.21,0,.32-.11.32-.32v-.64c-.64.06-.97.22-.97.49h0Zm.16,9.32h.48v.48h-.48v-.48Zm-15.76,7.41c1.18.21,1.77.43,1.77.64v.16c-.05.32-.48.48-1.29.48h-.16c-1.71-.13-2.57-.35-2.57-.64,0-.17.75-.38,2.25-.64Zm-18,.32l.32.48c0,.16-.16.32-.48.48l-.16-.32v-.32c.03-.22.13-.33.32-.33h0Zm3.38,0c.43.16.64.32.64.48,0,.16-.21.32-.64.48-1.07-.24-1.61-.45-1.61-.64l1.61-.32Zm2.89,0h.48c.21.03.32.13.32.32v.16c0,.21-.11.32-.32.32h-.64c-.21,0-.32-.11-.32-.32,0-.17.16-.33.48-.49h0Zm2.89,0h.96l.8.16v.32c-.05.32-.48.48-1.29.48-.56,0-.88-.16-.96-.48,0-.17.16-.33.48-.49h0Zm17.84,0h.47c.16,0,.32.16.48.48,0,.16-.21.32-.64.48-.43-.16-.64-.32-.64-.48v-.16c.03-.22.13-.33.32-.33h0Zm5.14,0h.96c.21.03.32.13.32.32,0,.16-.21.37-.64.64-.56,0-.88-.16-.96-.48v-.16c.02-.22.13-.33.32-.33h0Zm3.22,0h.16c.64.05.96.21.96.48-.11.32-.43.48-.96.48-.16,0-.32-.16-.48-.48v-.16c.03-.22.13-.33.32-.33h0Zm-10.77.17h.96c.16,0,.32.16.48.48-.11.32-.43.48-.96.48-.56,0-.88-.16-.96-.48,0-.17.16-.33.48-.49h0Zm-11.25,11.26h.32c.21.03.32.13.32.32,0,.21-.11.32-.32.32h-.64v-.32c.02-.22.13-.33.32-.33h0Zm23.79,0h.96c.21.03.32.13.32.32,0,.21-.11.32-.32.32h-.96c-.21,0-.32-.11-.32-.32.03-.22.13-.33.32-.33h0Zm-37.46.16h.8v.48h-.48c-.21,0-.32-.11-.32-.32v-.16Zm10.45,0h.48v.48h-.48v-.48Zm16.56,2.41c.21.03.32.13.32.32,0,.21-.11.32-.32.32s-.32-.11-.32-.32c.03-.22.14-.32.32-.32h0Zm-26.68,1.45c.43.16.64.32.64.48v.16c0,.21-.11.32-.32.32h-.32c-.21,0-.32-.11-.32-.32v-.32c.03-.21.13-.32.32-.32Zm29.1.16h.16c.21.03.32.13.32.32v.16c0,.21-.11.32-.32.32h-.16c-.21,0-.32-.11-.32-.32v-.16c.03-.22.13-.32.32-.32Zm-2.57.16h.32c.21.03.32.13.32.32,0,.21-.11.32-.32.32h-.32c-.21,0-.32-.11-.32-.32.03-.22.13-.32.32-.32h0Zm-4.98,2.57c.21.03.32.13.32.32l-.32.16c-.21,0-.32-.11-.32-.32l.32-.16Zm34.24-54.17c0,.16.21.37.64.64l1.93-.16,2.89,2.73c.67,0,1.26.96,1.77,2.89-.32.54-.7.8-1.13.8v.16l1.13,1.29v.32c-.59.94-1.45,1.63-2.57,2.09h-.64c-.7-.32-1.39-.96-2.09-1.93l-.8.16h-.8c-.16,0-.32-.16-.48-.48,0-.27.21-.43.64-.48,0-.19-.16-.67-.48-1.45,0-.11.21-.43.64-.96l-.16-.8h-.32c-.43.54-.7.8-.8.8h-.48c-.13,0-.56-.38-1.29-1.13-.86,0-1.55.32-2.09.96.11.21.16.38.16.48-1.5.05-2.25.54-2.25,1.45-.11,0-.16.05-.16.16l.32.64c1.61-.11,2.79-.16,3.54-.16h.48c.64.05.96.21.96.48,0,.21-.11.32-.32.32h-2.9c-.21.03-.32.13-.32.32.27,1.5.48,2.25.64,2.25h.16c.7-.54,1.23-.8,1.61-.8.19,0,.67.16,1.45.48l1.61-1.45c.48.21.75.43.8.64v.64c-.99,2.25-2.28,3.38-3.86,3.38h-.32c-.19,0-.62-.16-1.29-.48-.19,0-.62.48-1.29,1.45l-.32.16c-.67-.21-1.1-.32-1.29-.32l-.16.32c.32.54.48.96.48,1.29-.64.88-.96,1.53-.96,1.93,0,.64.7.96,2.09.96l.16.32c0,.21-.59.38-1.77.48-.21.35-.32.67-.32.96v.96c0,.13.11.72.32,1.77,0,.21-.27.86-.8,1.93.64.96.96,1.88.96,2.73l-.64,1.13.32.16h.16c.54-.43.86-.64.96-.64.59,0,1.29.54,2.09,1.61h1.61l1.61.48.81-.65h.16c.21.03.32.13.32.32,0,1.44-1.02,2.62-3.05,3.54-.51,0-1.05-.38-1.61-1.13h-.16c-.8.75-1.29,1.13-1.45,1.13-.67-.29-2.12-.56-4.34-.8-.46.19-.94.51-1.45.96h-.48c-.21,0-.86-.32-1.93-.96l-.8.48h-.48c-.32,0-.86-.21-1.61-.64l-1.13.16c-.46-.27-1.1-.48-1.93-.64-.21-.27-.32-.48-.32-.64,0-.86,1.45-1.5,4.34-1.93h.48c1.39.32,2.3.48,2.73.48h.48c-.21-.78-.32-1.21-.32-1.29,0-.29.48-.72,1.45-1.29,0-.27.21-.65.64-1.13v-.48c-.59,0-.96-.27-1.13-.8l.48-.8v-.64l-.48-.64c0-.21.16-.32.48-.32v-.17c0-.35-.16-.72-.48-1.13v-.32l.64-.8v-.32c-.43-1.29-.64-2.25-.64-2.89.24,0,.4-.27.48-.8-.21-.7-.32-1.18-.32-1.45v-.32c-.83,0-1.69-.54-2.57-1.61-3,0-4.5-.59-4.5-1.77l-.16-.8c0-.48.86-.91,2.57-1.29h1.13c1.02.32,1.66.48,1.93.48.48,0,1.02-.48,1.61-1.45-.43-.16-.64-.32-.64-.48v-.16c0-.16.38-.43,1.13-.8v-.48l-.32-.96c1.05-1.26,1.58-2.28,1.61-3.05,3.38-2.04,5.25-3.05,5.63-3.05.7.32,1.18.48,1.45.48,1.02-.43,1.93-.64,2.73-.64h0Zm-16.72,8.04c.56.11,1.1.16,1.61.16v.48l-.8.16h-3.06c-.21,0-.32-.11-.32-.32.03-.21.13-.32.32-.32.78.11,1.21.16,1.29.16.43-.21.75-.32.96-.32h0Zm25.72,0c.78.11,1.21.16,1.29.16.56-.11.88-.16.96-.16.43.16.64.32.64.48,0,.43-.64.64-1.93.64h-1.29c-.21,0-.32-.11-.32-.32v-.32c0-.16.21-.32.64-.48h0Zm3.7,0l1.13.16h.16l.32-.16.16.32v.16l-.16.32-.32-.16h-.49l-.8.16c-.21-.27-.32-.43-.32-.48.21,0,.32-.11.32-.32h0Zm-19.13,1.45c0,.11-.05.27-.16.48l.32.16h.16v-.32c0-.21-.11-.32-.32-.32h0Zm-11.74,4.66h.32v.16h-.32v-.16Zm21.22,5.47h.32c.21.03.32.13.32.32l-.32.16h-.32v-.48Zm-15.91,1.77c.21.03.32.13.32.32,0,.21-.11.32-.32.32s-.32-.11-.32-.32c.03-.21.13-.32.32-.32Zm-4.02,2.25h.16c.16,0,.32.16.48.48,0,.21-.11.32-.32.32h-.32c-.21,0-.32-.11-.32-.32v-.16c.03-.21.13-.32.32-.32Zm30.86.16h.16c.21.03.32.13.32.32,0,.21-.11.32-.32.32h-.16c-.21,0-.32-.11-.32-.32.03-.21.13-.32.32-.32h0Zm-21.22,26.68h.16c.21.03.32.13.32.32l-.32.16h-.16c-.21,0-.32-.11-.32-.32l.32-.16Zm33.56-50.48c0,.16.21.37.64.64l1.93-.16,2.89,2.73c.67,0,1.26.96,1.77,2.89-.32.54-.7.8-1.13.8v.16l1.13,1.29v.32c-.59.94-1.45,1.63-2.57,2.09h-.64c-.7-.32-1.39-.96-2.09-1.93l-.8.16h-.8c-.16,0-.32-.16-.48-.48,0-.27.21-.43.64-.48,0-.19-.16-.67-.48-1.45,0-.11.21-.43.64-.96l-.16-.8h-.32c-.43.54-.7.8-.8.8h-.48c-.13,0-.56-.38-1.29-1.13-.86,0-1.55.32-2.09.96.11.21.16.38.16.48-1.5.05-2.25.54-2.25,1.45-.11,0-.16.05-.16.16l.32.64c1.61-.11,2.79-.16,3.54-.16h.48c.64.05.96.21.96.48,0,.21-.11.32-.32.32h-2.9c-.21.03-.32.13-.32.32.27,1.5.48,2.25.64,2.25h.16c.7-.54,1.23-.8,1.61-.8.19,0,.67.16,1.45.48l1.61-1.45c.48.21.75.43.8.64v.64c-.99,2.25-2.28,3.38-3.86,3.38h-.32c-.19,0-.62-.16-1.29-.48-.19,0-.62.48-1.29,1.45l-.32.16c-.67-.21-1.1-.32-1.29-.32l-.16.32c.32.54.48.96.48,1.29-.64.88-.96,1.53-.96,1.93,0,.64.7.96,2.09.96l.16.32c0,.21-.59.38-1.77.48-.21.35-.32.67-.32.96v.96c0,.13.11.72.32,1.77,0,.21-.27.86-.8,1.93.64.96.96,1.88.96,2.73l-.64,1.13.32.16h.16c.54-.43.86-.64.96-.64.59,0,1.29.54,2.09,1.61h1.61l1.61.48.8-.64h.16c.21.03.32.13.32.32,0,1.44-1.02,2.62-3.05,3.54-.51,0-1.05-.38-1.61-1.13h-.16c-.8.75-1.29,1.13-1.45,1.13-.67-.29-2.12-.56-4.34-.8-.46.19-.94.51-1.45.96h-.48c-.21,0-.86-.32-1.93-.96l-.8.48h-.48c-.32,0-.86-.21-1.61-.64l-1.13.16c-.46-.27-1.1-.48-1.93-.64-.21-.27-.32-.48-.32-.64,0-.86,1.45-1.5,4.34-1.93h.48c1.39.32,2.3.48,2.73.48h.48c-.21-.78-.32-1.21-.32-1.29,0-.29.48-.72,1.45-1.29,0-.27.21-.65.64-1.13v-.49c-.59,0-.96-.27-1.13-.8l.48-.8v-.64l-.48-.64c0-.21.16-.32.48-.32v-.17c0-.35-.16-.72-.48-1.13v-.32l.64-.8v-.32c-.43-1.29-.64-2.25-.64-2.89.24,0,.4-.27.48-.8-.21-.7-.32-1.18-.32-1.45v-.32c-.83,0-1.69-.54-2.57-1.61-3,0-4.5-.59-4.5-1.77l-.16-.8c0-.48.86-.91,2.57-1.29h1.13c1.02.32,1.66.48,1.93.48.48,0,1.02-.48,1.61-1.45-.43-.16-.64-.32-.64-.48v-.16c0-.16.38-.43,1.13-.8v-.48l-.32-.96c1.05-1.26,1.58-2.28,1.61-3.05,3.38-2.04,5.25-3.05,5.63-3.05.7.32,1.18.48,1.45.48,1.02-.43,1.93-.64,2.74-.64Zm-16.72,8.04c.56.11,1.1.16,1.61.16v.48l-.8.16h-3.05c-.21,0-.32-.11-.32-.32.03-.21.13-.32.32-.32.78.11,1.21.16,1.29.16.43-.21.75-.32.96-.32h0Zm25.72,0c.78.11,1.21.16,1.29.16.56-.11.88-.16.96-.16.43.16.64.32.64.48,0,.43-.64.64-1.93.64h-1.28c-.21,0-.32-.11-.32-.32v-.32c0-.16.21-.32.64-.48h0Zm3.7,0l1.13.16h.16l.32-.16.16.32v.16l-.16.32-.32-.16h-.48l-.8.16c-.21-.27-.32-.43-.32-.48.22,0,.32-.11.32-.32h0Zm-19.13,1.45c0,.11-.05.27-.16.48l.32.16h.16v-.32c0-.21-.11-.32-.32-.32h0Zm-11.74,4.66h.32v.16h-.32v-.16Zm21.22,5.47h.32c.21.03.32.13.32.32l-.32.16h-.32v-.48Zm-15.91,1.77c.21.03.32.13.32.32,0,.21-.11.32-.32.32s-.32-.11-.32-.32c.03-.21.13-.32.32-.32Zm-4.02,2.25h.16c.16,0,.32.16.48.48,0,.21-.11.32-.32.32h-.32c-.21,0-.32-.11-.32-.32v-.16c.03-.21.13-.32.32-.32Zm30.86.16h.16c.21.03.32.13.32.32,0,.21-.11.32-.32.32h-.16c-.21,0-.32-.11-.32-.32.03-.21.13-.32.32-.32h0Zm-21.22,26.68h.16c.21.03.32.13.32.32l-.32.16h-.16c-.21,0-.32-.11-.32-.32l.32-.16ZM125.71,3.01c.16,0,.32.16.48.48,0,.21-.11.32-.32.32h-.16c-.21,0-.32-.11-.32-.32v-.16c.02-.21.13-.32.32-.32Zm0,2.25c.16,0,.32.16.48.48v.16c0,.24-.05.45-.16.64.11.19.16.4.16.64l-.32.16c-.16,0-.37-.48-.64-1.45.16-.43.32-.64.48-.64Zm0,2.73h.16c.21.03.32.13.32.32v.48c0,.16-.16.32-.48.48-.21,0-.32-.11-.32-.32v-.64c.02-.21.13-.32.32-.32Zm0,2.41c.16,0,.32.16.48.48v.32c0,.21-.11.32-.32.32h-.16c-.21,0-.32-.11-.32-.32v-.48c.02-.21.13-.32.32-.32Zm-.16,6.91h.16c.16,0,.32.16.48.48v.65c0,.46-.11.88-.32,1.29.21.35.32.67.32.96v.96c0,.21-.11.32-.32.32h-.16c-.21,0-.32-.16-.32-.48.05-1.07.16-1.61.32-1.61-.32-.54-.48-.96-.48-1.29v-.97c.02-.21.13-.32.32-.32h0Zm-.16,7.71h.48c.16,0,.32.16.48.48v.65c0,.16-.16.32-.48.48h-.16c-.16,0-.37-.21-.64-.64v-.64c.02-.21.13-.32.32-.32h0Zm1.61,2.73c.13.48.88,1.29,2.25,2.41,0,.43.21.75.64.96,1.98-.59,3.27-1.45,3.86-2.57h1.61c.75-.54,1.45-.8,2.09-.8h.32c.35,0,.62.05.8.16l.96-.16h.64c.38,0,1.13.43,2.25,1.29,1.5,0,2.25.64,2.25,1.93.46,0,.83.91,1.13,2.73.16,0,.32.16.48.48v.48c-.32,1.69-.96,3.03-1.93,4.02-.13,0-.56.16-1.29.48l-3.86-1.45-1.13-4.34-.8.16h-.16c-.08,0-.51-.11-1.29-.32-1.07,1.39-1.71,2.09-1.93,2.09-.83,0-1.37.32-1.61.96-.72,0-1.74,1.39-3.05,4.18,0,.27.11.75.32,1.45-.32.7-.48,1.18-.48,1.45v.8l.32,1.13c0,.08-.05.4-.16.96.21.35.32.67.32.96l-.32,1.13.32.16c.43-.64.7-.96.8-.96h.32c.62.64.99.96,1.13.96.72-.11,1.31-.16,1.77-.16h.16c1.93.83,2.89,1.85,2.89,3.05-1.26,1.18-2.49,1.77-3.7,1.77-.67-.21-1.05-.32-1.13-.32-.7.32-1.18.48-1.45.48-.32,0-.96-.27-1.93-.8-.4.21-.83.32-1.29.32h-.16c-.38,0-.86-.05-1.45-.16-.38.21-.86.32-1.45.32-.99-.32-1.58-.48-1.77-.48-.43.21-.8.32-1.13.32-2.46-.46-3.7-1.21-3.7-2.25.19-.51,1.04-.99,2.57-1.45h.96l.96.16,2.41-.96c.21.11.38.16.48.16.43-.64.64-1.29.64-1.93v-1.45c-.21-.27-.32-.43-.32-.48,0-.32.16-.75.48-1.29-.08-1.5-.29-2.36-.64-2.57v-.16c.43-.46.64-1.1.64-1.93-.43-.75-.64-1.29-.64-1.61v-.32c.64-.67.96-1.42.96-2.25v-.32l-1.29-1.61-.64.16c-.72-.32-1.31-.48-1.77-.48h-.48c-.21,0-.43.48-.64,1.45h-.48c-.13,0-.56-.64-1.29-1.93-.59,0-1.07-.32-1.45-.96,0-.96,1.02-1.82,3.05-2.57l1.61.16c1.95-.22,3.4-.43,4.34-.65h0Zm12.06,2.08v.48h.16c.21,0,.32-.11.32-.32v-.16h-.48Zm8.52,13.34h.64c.21.03.32.13.32.32v.32h-.64c-.21,0-.32-.11-.32-.32v-.32Zm6.27,0h.32v.48h-.32c-.21,0-.32-.11-.32-.32l.32-.16Zm.64,2.57l.48.64c-.16.43-.54.64-1.13.64-1.21-.21-2.06-.32-2.57-.32h-.64c-.21,0-.32-.11-.32-.32.4-.21.83-.32,1.29-.32.35,0,.62.05.8.16.18,0,.87-.15,2.08-.47h0Zm-33.6.32c1.5.08,2.25.29,2.25.64,0,.16-.16.32-.48.48h-.64c-1.07-.13-1.61-.35-1.61-.64,0-.16.15-.31.47-.47h0Zm9.48,0h.8c.16,0,.37.21.64.64-.35.21-.62.32-.8.32-.64-.11-.96-.27-.96-.48v-.16c.02-.21.13-.31.32-.31h0Zm7.88,0h.31c.64.05.96.21.96.48,0,.21-.11.32-.32.32h-.8c-.16,0-.32-.16-.48-.48.03-.21.14-.31.33-.31h0Zm2.25,0h1.13c.21.03.32.13.32.32-.13.43-.62.64-1.45.64l-.32-.48v-.16c.02-.21.13-.31.32-.31h0Zm4.82,0h.64c.56,0,1.47.05,2.73.16v.34c-.11.32-.43.48-.96.48h-1.29c-.83,0-1.31-.21-1.45-.64.02-.22.13-.33.32-.33h0Zm-28.77.15h.16c.21.03.32.13.32.32l-.32.16h-.16v-.48Zm18.33,0h.16v.34h-.17v-.34Zm-16.71,1.29c.21.03.32.13.32.32l-.32.16c-.21,0-.32-.11-.32-.32l.32-.16Zm18.16.32c.21.03.32.13.32.32v.32c0,.21-.11.32-.32.32-.16,0-.32-.16-.48-.48,0-.16.16-.31.48-.48h0Zm-11.09,3.05v.16c.03.21.13.32.32.32h.16v-.8h-.16c-.22.03-.33.14-.33.32h0Zm.64,6.59h.32c.21.03.32.13.32.32,0,.16-.16.32-.48.48h-.16c-.21,0-.32-.11-.32-.32v-.16c.02-.21.13-.32.32-.32h0Zm11.89,0h1.13c.21.03.32.13.32.32,0,.21-.11.32-.32.32h-1.13c-.21,0-.32-.11-.32-.32.02-.21.13-.32.32-.32h0Zm11.89,0h.8c.21.03.32.13.32.32v.16c0,.21-.11.32-.32.32h-.64c-.16,0-.32-.16-.48-.48.03-.21.13-.32.31-.32h0Zm-33.76.17h.32v.32h-.32v-.32Zm6.59,0c.21.03.32.13.32.32l-.32.16v-.48Zm7.39,0l.16.32-.32.16-.16-.32.32-.16Zm2.41,0h.32c.21.03.32.13.32.32l-.32.16h-.32c-.21,0-.32-.11-.32-.32l.32-.16Zm3.22,0h.32c.21.03.32.13.32.32l-.32.16c-.21,0-.32-.11-.32-.32v-.16Zm18.16,0h.16v.48h-.16c-.21,0-.32-.11-.32-.32l.32-.16Zm-37.78,1.76h.32v.48h-.32v-.48Zm10.61.32h.16c.16,0,.32.16.48.48v.16c0,.21-.11.32-.32.32h-.32c-.21,0-.32-.11-.32-.32v-.32c.03-.21.13-.32.32-.32h0Zm17.52,1.6h.32c.21.03.32.13.32.32v.32c0,.21-.11.32-.32.32h-.16c-.16,0-.32-.16-.48-.48v-.16c.03-.21.13-.32.32-.32h0Zm7.56.32h.16c.21.03.32.13.32.32v.16h-.48v-.48Zm2.25,0h.8c.21.03.32.13.32.32v.16c0,.21-.11.32-.32.32h-.8c-.16,0-.32-.16-.48-.48l.48-.32Zm-6.91,7.39h.48v.48h-.48v-.48Zm3.22,4.34h.32c.21.03.32.13.32.32v.17c0,.21-.11.32-.32.32h-.32c-.21,0-.32-.11-.32-.32v-.16c.03-.21.13-.32.32-.32h0Zm3.86,3.38c.21.03.32.13.32.32,0,.21-.11.32-.32.32s-.32-.11-.32-.32c.02-.22.13-.32.32-.32h0Zm14.23-53.21h.32c.21.03.32.13.32.32,0,.21-.11.32-.32.32h-.32c-.21,0-.32-.11-.32-.32.03-.21.13-.32.32-.32Zm7.71.8l.16.32v.64h-.32c-.21,0-.32-.11-.32-.32v-.16c0-.16.17-.32.49-.47h0Zm-30.22,2.08l.48.32c-.32,1.42-.48,2.38-.48,2.89.21.03.32.13.32.32v.48c0,.21-.11.32-.32.32s-.32-.11-.32-.32v-3.7c.03-.21.13-.32.32-.32Zm15.91,3.22l1.13,1.29h.32c.24,0,.45-.05.64-.16,1.53.48,2.81,1.5,3.86,3.05.64,0,.96.91.96,2.73.21.05.43.32.64.8-.54,1.05-.8,1.74-.8,2.09.43.94.64,1.63.64,2.09-.32.46-.59,1.37-.8,2.73.43.64.64,1.13.64,1.45,0,.11-.21.32-.64.64,0,.11.38.48,1.13,1.13l-1.29.96c.62.35,1.04.72,1.29,1.13l-.32,1.13.8.32c.51-1.39.99-2.09,1.45-2.09.13,0,.62-.21,1.45-.64.4,0,.83.54,1.29,1.61,0,.08-.05.4-.16.96.21.4.32.83.32,1.29-1.07,1.29-2.25,2.25-3.54,2.89,0,.11-.21.27-.64.48h-1.29c-.8,0-1.34-.43-1.61-1.29l-1.93.16h-1.13c-.38,0-.86-.05-1.45-.16-.35.21-.67.32-.96.32-.11,0-.16-.05-.16-.16-.75.54-1.39.8-1.93.8-.21-.35-.32-.62-.32-.8h-.32c-.29.35-.99.56-2.09.64-.43-.21-.75-.32-.96-.32l-1.61.96c-1.29-.86-2.09-1.29-2.41-1.29-.21,0-.32-.11-.32-.32.11-.21.16-.38.16-.48h-.16c-.19.11-.4.16-.64.16h-.32c-1.5-.56-2.25-1.37-2.25-2.41-.75-.46-1.13-.94-1.13-1.45,0-.46.11-.88.32-1.29-.21-.43-.32-.75-.32-.96.32-.54.48-.91.48-1.13-.11-.59-.16-1.02-.16-1.29.56-.38,1.15-1.18,1.77-2.41l.96-.64h1.61l1.29-1.29h1.29c1.02.32,1.66.48,1.93.48h.16c.21,0,.32-.16.32-.48-.21-.35-.32-.62-.32-.8l.96-.48c.29,0,.67.43,1.13,1.29h.16c1.07-.32,1.77-.48,2.09-.48l.64.32c0-.96.59-1.45,1.77-1.45.59,0,.96-.21,1.13-.64v-.32c-.43-.48-.64-.86-.64-1.13l.48-.96-.49-.79-1.13.16h-.16c-.16,0-.37-.32-.64-.96-.27,0-1.07.05-2.41.16-.21-.35-.32-.67-.32-.96v-.96h-.32c0,1.29-.86,1.93-2.57,1.93-.54.46-.96,1.26-1.29,2.41.21.35.32.67.32.96v.32c0,.08-.64.4-1.93.96-.78.4-1.42.83-1.93,1.29h-.16c-1.15,0-1.96-1.66-2.41-4.98v-.48c.64-.56,1.07-1.42,1.29-2.57.64-.96,1.02-1.45,1.13-1.45h.16c.11,0,.54.11,1.29.32,0-.46,1.13-.72,3.38-.8,0-.27.48-.48,1.45-.64.48.16.91.37,1.29.64h.16c.35,0,.94-.38,1.77-1.13h.96Zm5.3,4.33c0,.21-.05.32-.16.32.11.21.16.38.16.48h.16c.11-.38.16-.59.16-.64l-.32-.16Zm-21.22,1.13c.03.21.13.32.32.32,0,.11-.05.27-.16.48.11,1.44.16,2.51.16,3.22l-.48.32-.16-.32v-3.69c.03-.22.13-.33.32-.33h0Zm21.22,2.57l-.32,1.29c.11.19.16.4.16.64-.11.56-.16.88-.16.96.11.21.16.38.16.48h.32l.16-.8v-1.13l-.16-1.12c.11,0,.16-.05.16-.16l-.32-.17Zm-21.22,4.5c.21.03.32.13.32.32v.8c0,.11-.05.16-.16.16l.16.32v.32c0,.62-.05.99-.16,1.13.11.59.16,1.07.16,1.45,0,.56-.05,1.05-.16,1.45.11.94.16,1.74.16,2.41v1.93c0,.16-.16.32-.48.48l-.16-.32v-10.13c.03-.21.13-.32.32-.32Zm13.02,1.29c-.72,1.34-1.2,2.04-1.45,2.09h-.16c-.56,0-1.15-.38-1.77-1.13h-.48c-.88.96-1.63,1.45-2.25,1.45-.19,0-.62.38-1.29,1.13-.24,0-.72.43-1.45,1.29h-.16v.32c0,.94.8,1.85,2.41,2.73.11.64.38.96.8.96,1.13-.11,1.77-.16,1.93-.16.03.21.13.32.32.32h.32c.59-.75,1.13-1.13,1.61-1.13.99.64,1.58.96,1.77.96.64-1.29,1.07-1.93,1.29-1.93.46,0,1.26-.16,2.41-.48l-.16-1.13c.21-.21.8-.48,1.77-.8.32-1.26.48-2.01.48-2.25-.29-1.07-.51-1.61-.64-1.61h-.16c-.21.03-.32.13-.32.32.16,0,.32.16.48.48v.16c0,.16-.21.37-.64.64-.75-.32-1.29-.75-1.61-1.29l-1.93.16h-.32l-.8-1.13Zm-13.18,9.97c.86.11,1.29.27,1.29.48-.64.64-.96,1.39-.96,2.25h-.16c-.21,0-.32-.11-.32-.32v-2.09l.16-.32Zm30.86.32h.16v.48h-.16c-.21,0-.32-.11-.32-.32l.32-.16Zm-27.97.16h.32c.21.03.32.13.32.32-.11.32-.43.48-.96.48l-.16-.32c0-.16.16-.32.48-.48h0Zm-3.05,3.7h.32v.8h-.32v-.8Zm.32,3.38l.16.32c0,.21-.11.32-.32.32l-.16-.32c.03-.22.13-.33.32-.33h0Zm0,1.78l.32.48v.48c0,.21-.11.32-.32.32s-.32-.11-.32-.32v-.64c.03-.22.13-.33.32-.33h0Zm43.36-38.17h.64v.32c0,.21-.11.32-.32.32h-.32c-.21,0-.32-.11-.32-.32.03-.22.14-.33.32-.33h0Zm.8,1.62l1.93.96.8-.16c1.23,0,2.09,1.07,2.57,3.22.51.24.99.67,1.45,1.29v.48c-.21.27-.32.48-.32.64l.48.8v.64l-.48.64.16.96-.48.8v.16c.32.4.48.72.48.96,0,.13-.32.51-.96,1.13l1.13.8v.16c-.21.75-.32,1.18-.32,1.29.16,0,.32.16.48.48v.48l-.8.96v1.93c.32.4.48.78.48,1.13v1.13c0,.38,1.02.8,3.05,1.29.32.24.48.4.48.48v.48c0,1.61-.27,2.41-.8,2.41-2.17-.64-3.67-.96-4.5-.96-.72.43-1.36.64-1.93.64h-.32c-.19,0-.67-.16-1.45-.48-.7.21-1.18.32-1.45.32h-.16c-1.18-.19-1.77-.78-1.77-1.77v-.64c.56-.75,1.1-1.13,1.61-1.13.35.21.67.32.96.32,1.5-.91,2.25-1.45,2.25-1.61-.43-.75-.64-1.29-.64-1.61l.32-.48c-.11-.59-.16-1.02-.16-1.29.21-.35.32-.62.32-.8-.21-.35-.32-.67-.32-.96.11-.94.16-1.47.16-1.61-.21,0-.32-.11-.32-.32v-.32c.54-.54.8-1.39.8-2.57-.43-.64-.64-1.13-.64-1.45.16,0,.32-.16.48-.48v-.16c-.4-.32-.72-1.18-.96-2.57l-.8-.64-1.13.32-1.13-.16c-.24,0-.83.59-1.77,1.77-1.18,0-1.77.54-1.77,1.61-.56.54-1.42.96-2.57,1.29,0,1.26-.59,2.12-1.77,2.57-.11,0-.16.05-.16.16v.48c0,.05.11.21.32.48v.16c-.21.75-.32,1.18-.32,1.29.21.35.32.67.32.96-.32.54-.48.96-.48,1.29v1.91c.19.24.35.78.48,1.61.78.43,1.21.64,1.29.64l.96-.16h.64c.75.43,1.13.86,1.13,1.29,0,2.14-.54,3.22-1.61,3.22-.16,0-.96-.38-2.41-1.13,0,.13-.27.35-.8.64h-.16c-.38,0-.8-.21-1.29-.64h-.16l-1.61.49c-.86-.32-2.25-.54-4.18-.64-.75-.51-1.13-.83-1.13-.96,0-.86.8-1.55,2.41-2.09l.8.48h.48c0-.62.38-1.04,1.13-1.29l-.16-1.13v-.16l.48-.64c-.43-.54-.64-.86-.64-.96.08-.29.35-.62.8-.96l-.16-.8v-.48c.32-.43.48-.75.48-.96,0-.11-.27-.48-.8-1.13.21-1.29.48-2.25.8-2.89-.32-.46-.59-1.31-.8-2.57v-.32c0-.11.11-.54.32-1.29-.91-1.39-1.5-2.09-1.77-2.09-.94.11-1.53.16-1.77.16l-.8-1.13v-.16c.43-1.39.86-2.09,1.29-2.09.05,0,.75.05,2.09.16l1.61-.96c.46.32,1.42.8,2.89,1.45,0,.51.54.99,1.61,1.45,0,.05.05.27.16.64l-.48.8h.16c1.23-1.18,1.98-1.77,2.25-1.77.8,0,1.55-.64,2.25-1.93.11,0,.27-.05.48-.16.8.21,1.29.32,1.45.32,1.04-.64,1.68-.97,1.92-.97h0Zm-.32,20.91h.32v.16h-.32v-.16Zm-3.05,4.18c.21.03.32.13.32.32v.32c0,.21-.11.32-.32.32l-.32-.48v-.16c.03-.22.13-.34.32-.34h0Zm-11.74,3.4c.46,0,.88.05,1.29.16.43-.11.86-.16,1.29-.16.21.03.32.13.32.32v.16c0,.16-.16.32-.48.48h-.16c-.54,0-1.34.05-2.41.16l-.32-.48v-.16c0-.17.16-.34.48-.5h0Zm3.86.01c.35,0,.62.05.8.16l.96-.16c.21.03.32.13.32.32,0,.21-.11.32-.32.32h-.64c-.11,0-.16-.05-.16-.16l-.32.16h-.96v-.32c.03-.22.14-.34.32-.34h0Zm4.18.01h.16c.21.03.32.13.32.32v.16c0,.16-.16.32-.48.48-.16,0-.32-.16-.48-.48,0-.17.16-.34.48-.5h0Zm2.57.01h1.45c.21.03.32.13.32.32v.16c0,.21-.11.32-.32.32h-1.45c-.21,0-.32-.11-.32-.32v-.16c.03-.22.14-.34.32-.34h0Zm18.49.01l1.45.16c.43-.11.8-.16,1.13-.16l.16.32v.16c0,.16-.21.32-.64.48-.38-.11-.59-.16-.64-.16-.56.11-1.1.16-1.61.16-.21-.27-.32-.43-.32-.48v-.16c0-.22.16-.34.48-.34h0Zm-31.02.17c.21.03.32.13.32.32l-.48.32c-.21,0-.32-.11-.32-.32l.48-.32Zm24.43,0c.21.03.32.13.32.32l-.32.16c-.21,0-.32-.11-.32-.32l.32-.16Zm4.02,0h.32c.16,0,.32.16.48.48v.16c0,.21-.11.32-.32.32h-.48c-.16,0-.32-.16-.48-.48,0-.17.17-.34.49-.5v.02Zm-12.22.16h.16v.32h-.16v-.32Zm-7.71,11.09c.21.03.32.13.32.32,0,.21-.11.32-.32.32h-.32v-.32c.03-.23.13-.34.32-.34v.02Zm2.57,0h.64c.21.03.32.13.32.32,0,.16-.16.32-.48.48h-.32c-.16,0-.32-.16-.48-.48.03-.23.14-.34.32-.34v.02Zm6.91,0c.21.03.32.13.32.32,0,.21-.11.32-.32.32h-.16c-.21,0-.32-.11-.32-.32l.48-.32Zm8.68,0c.21.03.32.13.32.32v.32h-.32c-.21,0-.32-.11-.32-.32.03-.23.13-.34.32-.34v.02Zm-5.46,1.93h.16c.21.03.32.13.32.32l-.32.16h-.16v-.48Zm10.45,2.25h.32c.21.03.32.13.32.32v.16c0,.21-.11.32-.32.32h-.32c-.21,0-.32-.11-.32-.32v-.16c.03-.23.13-.34.32-.34v.02Zm-24.75.16h.48v.46h-.48c-.21,0-.32-.11-.32-.32l.32-.14Zm6.75,2.41c.21.03.32.13.32.32v.48h-.32c-.21,0-.32-.11-.32-.32v-.16c.03-.23.13-.34.32-.34v.02Zm28.66-48.42c.86.46,1.29.94,1.29,1.45h.16c.48,0,1.02-.38,1.61-1.13h.64c.16,0,.32.16.48.48,0,.05-.21.32-.64.8,0,.16.16.32.48.48h.16c1.23-1.18,1.93-1.77,2.09-1.77l1.29.32c.54-.32.96-.48,1.29-.48,1.82.83,2.73,1.74,2.73,2.73.51.96.88,1.45,1.13,1.45l.16.32v1.1c0,.75-1.07,1.77-3.22,3.05l-.32.16c-.7-.32-1.18-.48-1.45-.48-1.07,2.04-1.61,3.16-1.61,3.38.11.94.16,1.47.16,1.61,0,.59-.75,1.13-2.25,1.61-.78,1.07-1.53,1.61-2.25,1.61-.21-.11-.38-.16-.48-.16-.78.19-1.58.56-2.41,1.13-.67,0-1.31-.27-1.93-.8h-.64c0,.21-.05.32-.16.32.21.43.32.8.32,1.13-.4.32-.78.48-1.13.48h-.16c-.64-.38-.96-.64-.96-.8v-.32c0-.16.16-.32.48-.48.19.11.4.16.64.16l.16-.32c-.46-.86-.94-1.29-1.45-1.29-.13,0-.56.43-1.29,1.29h-1.61c-.27,0-.65.59-1.13,1.77,0,.11.38.64,1.13,1.61l1.13-.16c.56.11.88.16.96.16.16,0,.75-.43,1.77-1.29.7.21,1.12.32,1.29.32.7-.43,1.61-.64,2.73-.64l1.29.64c.38-.03.8-.51,1.29-1.45h.32c.21,0,.38.54.48,1.61h2.09c1.61.54,2.46.8,2.57.8,1.26,0,2.49.86,3.7,2.57.54,0,1.12.91,1.77,2.73,0,.38-.16.86-.48,1.45.11,1.07.16,1.88.16,2.41-1.53,1.82-2.87,3.05-4.02,3.7h-.96c-.29,0-1.26.27-2.89.8-.38-.21-.86-.32-1.45-.32-.78.43-1.26.64-1.45.64l-.96-.48c-.91.11-1.66.16-2.25.16l-1.45-.16c-.64.43-1.13.64-1.45.64h-.32c-1.13-1.07-2.46-1.61-4.02-1.61-1.61-1.07-2.73-1.6-3.37-1.6-.99-1.88-1.8-3.16-2.41-3.86l.16-.96c-.03-.14-.05-.28-.07-.42-.02-.14-.04-.27-.05-.41-.01-.13-.02-.27-.03-.4s0-.26,0-.39c.86,0,1.29-.64,1.29-1.93.56,0,.88-.54.96-1.61v-.64l-.32-1.13.16-.8c-.11-.56-.16-1.1-.16-1.61.27-1.37.81-2.44,1.61-3.22l-.16-.8.64-.48c.54.32.91.48,1.13.48l.16-.32v-.16c-.54-.56-.8-1.37-.8-2.41-.11,0-.27-.21-.48-.64v-2.42l.48-.8c-.11-.59-.16-1.02-.16-1.29,1.44-1.31,2.57-2.49,3.38-3.54.78,0,1.63-.43,2.57-1.29l.64-.16c.94.11,1.53.16,1.77.16.96-.21,1.6-.32,1.93-.32v.02Zm-10.77.16c.96.13,1.45.35,1.45.64-.11.32-.43.48-.96.48h-.96c-.43,0-1.12-.11-2.09-.32v-.48c1.36-.23,2.22-.34,2.57-.34v.02Zm24.76.16c.29,0,.62.11.96.32l.96-.16c.21.03.32.13.32.32,0,.21-.11.32-.32.32l-.96-.16c-.35.21-.67.32-.96.32l-.32-.48v-.18c.03-.21.13-.32.32-.32v.02Zm-1.61.16l.16.32-.32.16-.16-.32.32-.16Zm5.14,0l.16.32c0,.21-.11.32-.32.32h-.16v-.32c.03-.23.14-.34.33-.34v.02Zm3.53.16h.32v.32h-.32v-.32Zm-25.24,4.66c.21.35.32.67.32.96h-.48l-.64-.96h-.32c-.27,1.55-.7,2.68-1.29,3.38.38,2.89,1.07,4.34,2.09,4.34,1.07,0,1.61.43,1.61,1.29,1.21-.43,1.9-.64,2.09-.64l.32.16c.7-.21,1.39-.8,2.09-1.77.54-.08.8-.24.8-.48-.21-.35-.32-.67-.32-.96v-.8c0-.16.16-.32.48-.48l.96.16c0-.78-.59-1.58-1.77-2.41l-.32-1.13.16-.8c-.16-.43-.32-.64-.48-.64l-1.77.64c-.8-.27-1.29-.65-1.45-1.13-1.39.32-2.09.64-2.09.96v.32Zm13.02,6.43c.43.16.64.32.64.48-.27.21-.43.32-.48.32h-.96c-.21,0-.32-.11-.32-.32v-.32l1.13-.16Zm7.07,0h.48c.16,0,.32.16.48.48,0,.21-.11.32-.32.32h-.8c-.21,0-.32-.11-.32-.32,0-.17.16-.34.49-.5v.02Zm-31.84.16h.32c.21.03.32.13.32.32,0,.21-.11.32-.32.32h-.32c-.21,0-.32-.11-.32-.32.03-.23.14-.34.32-.34v.02Zm14.47.64h.16v.32h-.16v-.32Zm17.36,1.13h.64c.21.03.32.13.32.32,0,.16-.16.32-.48.48h-.16l-.8-.16c0,.16-.21.37-.64.64h-.16c-.21,0-.32-.11-.32-.32v-.16c0-.16.21-.32.64-.48.21.11.38.16.48.16,0-.18.16-.35.48-.5v.02Zm-8.04,5.14h.32v.16h-.32v-.16Zm-11.89,4.5h-.16l-1.61-.48h-.16c-.94,1.18-1.47,1.77-1.61,1.77h-.64l-.8-.64h-.16c-.35.08-.72,1.04-1.13,2.89.24,1.82,1.04,2.73,2.41,2.73.72,0,1.26.27,1.61.8h.16l1.6-.5h.32c.05,0,.37.32.96.96h.48c.11,0,.54-.11,1.29-.32.48,0,.96.21,1.45.64.88-1.18,1.37-1.77,1.45-1.77h.32c.54,0,1.07.38,1.61,1.13.19,0,.67-.54,1.45-1.61.19-.11.4-.16.64-.16l.64.48h.16c.56,0,.94-1.13,1.13-3.38-.24-.83-1.69-1.79-4.34-2.89,0,.16-.32.48-.96.96h-.64c-.64,0-1.13-.48-1.45-1.45-1.13-.21-1.98-.32-2.57-.32-.38,0-.86.38-1.45,1.13v.02Zm7.24,2.89h.48c.21.03.32.13.32.32,0,.16-.16.32-.48.48h-.16c-.16,0-.32-.16-.48-.48.02-.22.13-.33.32-.33h0Zm5.3,16.41c.21.03.32.13.32.32,0,.21-.11.32-.32.32s-.32-.11-.32-.32c.03-.23.13-.34.32-.34v.02Zm-10.12.16c.21.03.32.13.32.32l-.32.16c-.21,0-.32-.11-.32-.32l.32-.16Z"/>
</svg>